<?xml version="1.0" standalone="no"?>
<!DOCTYPE svg PUBLIC "-//W3C//DTD SVG 1.1//EN" "http://www.w3.org/Graphics/SVG/1.1/DTD/svg11.dtd">
<svg width="207mm" height="404mm" viewBox="-306 -404 207 404" xmlns="http://www.w3.org/2000/svg" version="1.1">
<title>OpenSCAD Model</title>
<path d="
M -306,-60 L -303,-60 L -303,-6.72795e-14 L -263,-5.83977e-14 L -263,-3 L -233,-3
 L -233,-5.17364e-14 L -163,-3.61933e-14 L -163,-3 L -133,-3 L -133,-2.95319e-14 L -103,-2.28706e-14
 L -103,-20 L -100,-20 L -100,-40 L -103,-40 L -103,-120 L -100,-120
 L -100,-180 L -103,-180 L -103,-260 L -100,-260 L -100,-320 L -103,-320
 L -103,-400 L -133,-400 L -133,-403 L -163,-403 L -163,-400 L -193,-400
 L -193,-350 L -196,-350 L -196,-400 L -233,-400 L -233,-403 L -263,-403
 L -263,-400 L -303,-400 L -303,-300 L -306,-300 L -306,-240 L -303,-240
 L -303,-120 L -306,-120 z
" stroke="black" fill="lightgray" stroke-width="0.5"/></svg>
