<?xml version="1.0" standalone="no"?>
<!DOCTYPE svg PUBLIC "-//W3C//DTD SVG 1.1//EN" "http://www.w3.org/Graphics/SVG/1.1/DTD/svg11.dtd">
<svg width="1153" height="906" viewBox="0 -906 1153 906" xmlns="http://www.w3.org/2000/svg" version="1.1">
<title>OpenSCAD Model</title>
<path d="
M 480,-700 L 650,-700 L 650,-703 L 700,-703 L 700,-700 L 756,-700
 L 756,-733 L 753,-733 L 753,-763 L 756,-763 L 756,-833 L 753,-833
 L 753,-863 L 756,-863 L 756,-906 L 700,-906 L 700,-903 L 650,-903
 L 650,-906 L 380,-906 L 380,-600 L 480,-600 z
M 600,-833 L 600,-863 L 603,-863 L 603,-833 z
M 650,-773 L 650,-833 L 700,-833 L 700,-773 z
M 430,-725 L 430,-775 L 480,-775 L 480,-725 z
M 600,-733 L 600,-763 L 603,-763 L 603,-733 z
M 770,-350 L 810,-350 L 810,-353 L 870,-353 L 870,-350 L 990,-350
 L 990,-353 L 1050,-353 L 1050,-350 L 1150,-350 L 1150,-400 L 1153,-400
 L 1153,-450 L 1150,-450 L 1150,-506 L 1050,-506 L 1050,-503 L 990,-503
 L 990,-506 L 870,-506 L 870,-503 L 810,-503 L 810,-506 L 750,-506
 L 750,-483 L 753,-483 L 753,-453 L 750,-453 L 750,-403 L 753,-403
 L 753,-373 L 750,-373 L 750,-200 L 770,-200 z
M 237,-103 L 264,-103 L 264,-100 L 337,-100 L 337,-103 L 367,-103
 L 367,-100 L 437,-100 L 437,-103 L 467,-103 L 467,-100 L 497,-100
 L 497,-115 L 500,-115 L 500,-130 L 497,-130 L 497,-150 L 487,-150
 L 487,-153 L 467,-153 L 467,-150 L 440,-150 L 440,-153 L 420,-153
 L 420,-150 L 397,-150 L 397,-220 L 400,-220 L 400,-280 L 397,-280
 L 397,-360 L 400,-360 L 400,-420 L 397,-420 L 397,-500 L 367,-500
 L 367,-503 L 337,-503 L 337,-500 L 307,-500 L 307,-450 L 304,-450
 L 304,-500 L 267,-500 L 267,-503 L 237,-503 L 237,-500 L 197,-500
 L 197,-400 L 194,-400 L 194,-340 L 197,-340 L 197,-220 L 194,-220
 L 194,-160 L 197,-160 L 197,-100 L 237,-100 z
M 500,-450 L 503,-450 L 503,-400 L 653,-400 L 653,-450 L 656,-450
 L 656,-400 L 676,-400 L 676,-500 L 480,-500 L 480,-400 L 500,-400
 z
M 53,-3 L 103,-3 L 103,-0 L 133,-0 L 133,-3 L 153,-3
 L 153,-33 L 156,-33 L 156,-63 L 153,-63 L 153,-133 L 156,-133
 L 156,-163 L 153,-163 L 153,-233 L 156,-233 L 156,-263 L 153,-263
 L 153,-303 L 133,-303 L 133,-306 L 103,-306 L 103,-303 L 53,-303
 L 53,-306 L 23,-306 L 23,-303 L 3,-303 L 3,-263 L 0,-263
 L 0,-233 L 3,-233 L 3,-163 L 0,-163 L 0,-133 L 3,-133
 L 3,-63 L 0,-63 L 0,-33 L 3,-33 L 3,-3 L 23,-3
 L 23,-0 L 53,-0 z
M 523,-203 L 553,-203 L 553,-200 L 603,-200 L 603,-203 L 633,-203
 L 633,-200 L 656,-200 L 656,-213 L 653,-213 L 653,-233 L 656,-233
 L 656,-260 L 653,-260 L 653,-280 L 656,-280 L 656,-303 L 500,-303
 L 500,-280 L 503,-280 L 503,-260 L 500,-260 L 500,-233 L 503,-233
 L 503,-213 L 500,-213 L 500,-200 L 523,-200 z
M 620,-3 L 680,-3 L 680,-0 L 760,-0 L 760,-3 L 820,-3
 L 820,-0 L 900,-0 L 900,-50 L 903,-50 L 903,-100 L 900,-100
 L 900,-156 L 820,-156 L 820,-153 L 760,-153 L 760,-156 L 680,-156
 L 680,-153 L 620,-153 L 620,-156 L 553,-156 L 553,-0 L 620,-0
 z
M 223,-3 L 253,-3 L 253,-0 L 303,-0 L 303,-3 L 333,-3
 L 333,-0 L 356,-0 L 356,-15 L 353,-15 L 353,-30 L 356,-30
 L 356,-50 L 333,-50 L 333,-53 L 303,-53 L 303,-50 L 253,-50
 L 253,-53 L 223,-53 L 223,-50 L 200,-50 L 200,-30 L 203,-30
 L 203,-15 L 200,-15 L 200,-0 L 223,-0 z
" stroke="black" fill="lightgray" stroke-width="0.5"/></svg>
